<?xml version="1.0" encoding="UTF-8"?>
<svg width="14px" height="15px" viewBox="0 0 14 15" version="1.1" xmlns="http://www.w3.org/2000/svg" xmlns:xlink="http://www.w3.org/1999/xlink">
    <!-- Generator: Sketch 41.2 (35397) - http://www.bohemiancoding.com/sketch -->
    <title>clipboard</title>
    <desc>Created with Sketch.</desc>
    <defs></defs>
    <g id="Page-1" stroke="none" stroke-width="1" fill="none" fill-rule="evenodd">
        <g id="clipboard" fill="#575757">
            <path d="M0,2 L0,3 L0,4 L0,14 L1,15 L12,15 L13,14 L13,7 L12,8 L12,14 L1,14 L1,4 L3,4 L3,3 L1,3 L1,2 L3,2 L3,1 L1,1 L0,2 L0,2 Z M4,4 L6,4 L7,3 L8,2 L9,1 L9,0 L4,0 L4,1 L4,2 L4,3 L4,4 L4,4 Z M6,1 L6.5,1 L7,1 L7,1.5 L7,2 L6.5,2 L6,2 L6,1.5 L6,1 L6,1 Z" id="Shape"></path>
            <path d="M3,10 L5,12 L12,5 L10,3 L3,10 L3,10 Z M13,4 L14,3 L14,2 L13,1 L12,1 L11,2 L13,4 L13,4 Z M3,11 L2,13 L4,12 L3,11 L3,11 Z" id="Shape"></path>
        </g>
    </g>
</svg>