<?xml version="1.0" encoding="UTF-8"?>
<svg width="14px" height="14px" viewBox="0 0 14 14" version="1.1" xmlns="http://www.w3.org/2000/svg" xmlns:xlink="http://www.w3.org/1999/xlink">
    <!-- Generator: Sketch 41.2 (35397) - http://www.bohemiancoding.com/sketch -->
    <title>person</title>
    <desc>Created with Sketch.</desc>
    <defs></defs>
    <g id="Page-1" stroke="none" stroke-width="1" fill="none" fill-rule="evenodd">
        <path d="M6.38194478,0.169274538 C5.89288444,0.169274538 6.31610973,0.32859175 6.05276955,0.368421053 C5.78942937,0.408250356 6.40075479,0.32859175 5.61073425,0.487908962 C4.82071371,0.657183499 4.6608286,1.73257468 4.62320857,2.13086771 C4.58558854,2.52916074 4.57618354,2.64864865 4.59499355,3.24608819 C4.6702336,3.60455192 4.29403334,3.60455192 4.29403334,3.60455192 C3.81437802,3.57467994 3.73913796,5.13798009 3.73913796,5.13798009 C3.80497301,5.52631579 3.71092294,5.71550498 4.41629843,6.01422475 C4.74547365,7.01991465 5.60132924,7.52773826 5.60132924,7.52773826 C5.60132924,7.52773826 5.63894927,8.17496444 5.65775928,8.63300142 C5.58251923,8.60312945 5.52608919,9.81792319 3.3535327,10.1564723 C1.1715712,10.4950213 0.75775092,11.2418208 0.343930636,11.6600284 C-0.0698896479,12.0782361 0.00535040367,14 0.00535040367,14 L14,14 C14,14 13.9059499,12.0782361 13.5015347,11.6600284 C13.0877144,11.2418208 12.6362741,10.4950213 10.4637176,10.1564723 C8.28175608,9.81792319 8.43223618,8.63300142 8.41342617,8.56330014 C8.42283118,8.38406828 8.49807123,7.60739687 8.49807123,7.60739687 C8.49807123,7.60739687 9.20344671,6.99004267 9.53262194,5.98435277 C10.0593023,5.63584637 10.2568074,5.58605974 10.3508575,5.17780939 C10.3508575,5.17780939 10.5859827,3.64438122 10.0216823,3.64438122 C10.0216823,3.64438122 9.37273683,3.68421053 9.44797688,3.3257468 C9.52321693,2.96728307 9.49500191,2.84779516 9.45738189,2.44950213 C9.41976186,2.0512091 9.64548201,0.906116643 8.85546147,0.746799431 C8.3193761,0.647226174 8.48866622,0.806543385 8.22532604,0.766714083 C7.96198586,0.72688478 7.65162065,0 7.16256031,0 L6.38194478,0.169274538 L6.38194478,0.169274538 Z" id="person" fill="#575757"></path>
    </g>
</svg>